<svg width="44" height="24" viewBox="0 0 44 24" fill="none" xmlns="http://www.w3.org/2000/svg">
<path fill-rule="evenodd" clip-rule="evenodd" d="M40.1042 2.92756C39.7015 2.92756 39.375 3.25524 39.375 3.65946C39.375 4.06367 39.7015 4.39135 40.1042 4.39135C40.5069 4.39135 40.8333 4.06367 40.8333 3.65946C40.8333 3.25524 40.5069 2.92756 40.1042 2.92756ZM36.4583 3.65946C36.4583 1.63839 38.0907 0 40.1042 0C42.1176 0 43.75 1.63839 43.75 3.65946C43.75 5.68051 42.1176 7.31891 40.1042 7.31891C39.634 7.31891 39.1844 7.22956 38.7718 7.06687L31.1031 14.7643C31.2651 15.1785 31.3542 15.6296 31.3542 16.1016C31.3542 18.1227 29.7218 19.7611 27.7083 19.7611C25.6949 19.7611 24.0625 18.1227 24.0625 16.1016C24.0625 15.6296 24.1516 15.1785 24.3135 14.7643L18.8323 9.26254C18.4196 9.42523 17.9702 9.51458 17.5 9.51458C17.0298 9.51458 16.5804 9.42523 16.1677 9.26254L7.04056 18.4237C7.20265 18.838 7.29167 19.2891 7.29167 19.7611C7.29167 21.7821 5.65936 23.4205 3.64583 23.4205C1.6323 23.4205 0 21.7821 0 19.7611C0 17.74 1.6323 16.1016 3.64583 16.1016C4.11604 16.1016 4.56546 16.191 4.97817 16.3536L14.1053 7.19244C13.9432 6.77819 13.8542 6.32709 13.8542 5.85513C13.8542 3.83407 15.4865 2.19567 17.5 2.19567C19.5135 2.19567 21.1458 3.83407 21.1458 5.85513C21.1458 6.32709 21.0568 6.77819 20.8948 7.19244L26.376 12.6942C26.7886 12.5315 27.2382 12.4421 27.7083 12.4421C28.1785 12.4421 28.6281 12.5315 29.0407 12.6942L36.7094 4.99677C36.5474 4.58252 36.4583 4.13142 36.4583 3.65946ZM26.9792 16.1016C26.9792 15.6974 27.3056 15.3697 27.7083 15.3697C28.111 15.3697 28.4375 15.6974 28.4375 16.1016C28.4375 16.5058 28.111 16.8335 27.7083 16.8335C27.3056 16.8335 26.9792 16.5058 26.9792 16.1016ZM17.5 5.12324C17.0973 5.12324 16.7708 5.45091 16.7708 5.85513C16.7708 6.25935 17.0973 6.58702 17.5 6.58702C17.9027 6.58702 18.2292 6.25935 18.2292 5.85513C18.2292 5.45091 17.9027 5.12324 17.5 5.12324ZM2.91667 19.7611C2.91667 19.3568 3.24312 19.0292 3.64583 19.0292C4.04855 19.0292 4.375 19.3568 4.375 19.7611C4.375 20.1653 4.04855 20.4929 3.64583 20.4929C3.24312 20.4929 2.91667 20.1653 2.91667 19.7611Z" fill="#96AAFE"/>
</svg>
