<svg width="74" height="74" viewBox="0 0 74 74" fill="none" xmlns="http://www.w3.org/2000/svg">
<path d="M36.9982 41.0082C36.5974 41.0082 36.1966 40.9157 35.8266 40.6999L8.60062 24.944C7.49062 24.2965 7.12056 22.8781 7.76806 21.7681C8.41556 20.6581 9.80306 20.288 10.9439 20.9355L36.9982 36.0132L62.8979 21.0281C64.0079 20.3806 65.4263 20.7815 66.0738 21.8607C66.7213 22.9707 66.3207 24.3889 65.2416 25.0364L38.2007 40.6999C37.7999 40.8849 37.3991 41.0082 36.9982 41.0082Z" fill="#96AAFE"/>
<path d="M37 68.9435C35.7358 68.9435 34.6875 67.8952 34.6875 66.631V38.6652C34.6875 37.401 35.7358 36.3527 37 36.3527C38.2642 36.3527 39.3125 37.401 39.3125 38.6652V66.631C39.3125 67.8952 38.2642 68.9435 37 68.9435Z" fill="#96AAFE"/>
<path d="M36.9966 70.1466C34.1908 70.1466 31.5083 69.4991 29.4733 68.3583L13.0083 59.2319C8.53743 56.7653 5.02246 50.8141 5.02246 45.6958V28.2442C5.02246 23.1258 8.53743 17.206 13.0083 14.7085L29.4733 5.58172C33.6666 3.23839 40.2649 3.23839 44.4891 5.58172L60.9541 14.7085C65.4249 17.1751 68.9399 23.1258 68.9399 28.2442V39.5291C68.9399 40.7933 67.8916 41.8416 66.6274 41.8416C65.3633 41.8416 64.3149 40.7933 64.3149 39.5291V28.2442C64.3149 24.8525 61.6941 20.4126 58.7341 18.7785L42.2691 9.65175C39.4633 8.07925 34.5608 8.07925 31.7549 9.65175L15.2899 18.7785C12.2991 20.4435 9.7091 24.8525 9.7091 28.2442V45.6958C9.7091 49.0875 12.3299 53.5278 15.2899 55.1619L31.7549 64.2883C34.4683 65.7991 39.5866 65.7991 42.2691 64.2883C43.3791 63.6716 44.7974 64.0728 45.4141 65.1828C46.0308 66.2928 45.6299 67.7108 44.5199 68.3275C42.4849 69.4991 39.8024 70.1466 36.9966 70.1466Z" fill="#96AAFE"/>
<path d="M59.1999 68.296C52.4783 68.296 47.0208 62.8385 47.0208 56.1168C47.0208 49.3951 52.4783 43.9376 59.1999 43.9376C65.9216 43.9376 71.3791 49.3951 71.3791 56.1168C71.3791 62.8385 65.9216 68.296 59.1999 68.296ZM59.1999 48.5626C55.0374 48.5626 51.6458 51.9543 51.6458 56.1168C51.6458 60.2793 55.0374 63.671 59.1999 63.671C63.3624 63.671 66.7541 60.2793 66.7541 56.1168C66.7541 51.9543 63.3624 48.5626 59.1999 48.5626Z" fill="#96AAFE"/>
<path d="M70.9152 70.146C70.3294 70.146 69.7436 69.9302 69.2811 69.4677L66.1977 66.3843C65.3036 65.4902 65.3036 64.0099 66.1977 63.1157C67.0919 62.2215 68.5719 62.2215 69.4661 63.1157L72.5494 66.199C73.4436 67.0932 73.4436 68.5735 72.5494 69.4677C72.0869 69.9302 71.5011 70.146 70.9152 70.146Z" fill="#96AAFE"/>
</svg>
