<svg width="74" height="74" viewBox="0 0 74 74" fill="none" xmlns="http://www.w3.org/2000/svg">
<path d="M31.1735 55.9613H19.4877C18.2235 55.9613 17.1752 54.9129 17.1752 53.6488V37.8621C17.1752 34.6554 19.796 32.0343 23.0026 32.0343H31.1735C32.4376 32.0343 33.486 33.0826 33.486 34.3468V53.6176C33.486 54.9126 32.4376 55.9613 31.1735 55.9613ZM21.8002 51.3363H28.8609V36.6904H23.0026C22.3551 36.6904 21.8002 37.2143 21.8002 37.8926V51.3363Z" fill="#00DA71"/>
<path d="M42.8263 55.9613H31.1405C29.8763 55.9613 28.828 54.913 28.828 53.6488V23.8635C28.828 20.6569 31.4488 18.036 34.6555 18.036H39.3421C42.5488 18.036 45.1696 20.6569 45.1696 23.8635V53.6488C45.1388 54.913 44.1213 55.9613 42.8263 55.9613ZM33.4838 51.3363H40.5446V23.8635C40.5446 23.216 40.0205 22.661 39.3421 22.661H34.6555C34.008 22.661 33.453 23.1852 33.453 23.8635V51.3363H33.4838Z" fill="#00DA71"/>
<path d="M54.5152 55.9614H42.8293C41.5652 55.9614 40.5168 54.913 40.5168 53.6489V39.6194C40.5168 38.3552 41.5652 37.3069 42.8293 37.3069H51.0002C54.2068 37.3069 56.8277 39.9277 56.8277 43.1344V53.6489C56.8277 54.913 55.8102 55.9614 54.5152 55.9614ZM45.1418 51.3364H52.2027V43.1344C52.2027 42.4869 51.6785 41.9319 51.0002 41.9319H45.1418V51.3364Z" fill="#00DA71"/>
<path d="M46.25 70.1456H27.75C11.0075 70.1456 3.85413 62.9922 3.85413 46.2497V27.7497C3.85413 11.0072 11.0075 3.85388 27.75 3.85388H46.25C62.9925 3.85388 70.1458 11.0072 70.1458 27.7497V46.2497C70.1458 62.9922 62.9925 70.1456 46.25 70.1456ZM27.75 8.47888C13.5358 8.47888 8.47913 13.5355 8.47913 27.7497V46.2497C8.47913 60.4639 13.5358 65.5206 27.75 65.5206H46.25C60.4641 65.5206 65.5208 60.4639 65.5208 46.2497V27.7497C65.5208 13.5355 60.4641 8.47888 46.25 8.47888H27.75Z" fill="#00DA71"/>
</svg>
