<svg width="70" height="68" viewBox="0 0 70 68" fill="none" xmlns="http://www.w3.org/2000/svg">
<path d="M36.5897 0C12.8621 0 -3.3037 24.042 5.64865 46.0159L9.47583 55.4099C9.8183 56.2505 9.56795 57.2162 8.86024 57.7846L0.767403 64.2839C0.0883301 64.8292 -0.172608 65.7438 0.116456 66.5654C0.405518 67.3869 1.18163 67.9366 2.05258 67.9366H34.1543C53.9513 67.9366 70 51.8879 70 32.0909C70 14.3676 55.6324 0 37.9091 0H36.5897Z" fill="#FF554D"/>
<path fill-rule="evenodd" clip-rule="evenodd" d="M53.2292 25.6776C52.8265 25.6776 52.5 26.0052 52.5 26.4095C52.5 26.8137 52.8265 27.1413 53.2292 27.1413C53.6319 27.1413 53.9583 26.8137 53.9583 26.4095C53.9583 26.0052 53.6319 25.6776 53.2292 25.6776ZM49.5833 26.4095C49.5833 24.3884 51.2157 22.75 53.2292 22.75C55.2426 22.75 56.875 24.3884 56.875 26.4095C56.875 28.4305 55.2426 30.0689 53.2292 30.0689C52.759 30.0689 52.3094 29.9796 51.8968 29.8169L44.2281 37.5143C44.3901 37.9285 44.4792 38.3796 44.4792 38.8516C44.4792 40.8727 42.8468 42.5111 40.8333 42.5111C38.8199 42.5111 37.1875 40.8727 37.1875 38.8516C37.1875 38.3796 37.2766 37.9285 37.4385 37.5143L31.9573 32.0125C31.5446 32.1752 31.0952 32.2646 30.625 32.2646C30.1548 32.2646 29.7054 32.1752 29.2927 32.0125L20.1656 41.1737C20.3277 41.588 20.4167 42.0391 20.4167 42.5111C20.4167 44.5321 18.7844 46.1705 16.7708 46.1705C14.7573 46.1705 13.125 44.5321 13.125 42.5111C13.125 40.49 14.7573 38.8516 16.7708 38.8516C17.241 38.8516 17.6905 38.941 18.1032 39.1036L27.2303 29.9424C27.0682 29.5282 26.9792 29.0771 26.9792 28.6051C26.9792 26.5841 28.6115 24.9457 30.625 24.9457C32.6385 24.9457 34.2708 26.5841 34.2708 28.6051C34.2708 29.0771 34.1818 29.5282 34.0198 29.9424L39.501 35.4442C39.9136 35.2815 40.3632 35.1921 40.8333 35.1921C41.3035 35.1921 41.7531 35.2815 42.1657 35.4442L49.8344 27.7468C49.6724 27.3325 49.5833 26.8814 49.5833 26.4095ZM40.1042 38.8516C40.1042 38.4474 40.4306 38.1197 40.8333 38.1197C41.236 38.1197 41.5625 38.4474 41.5625 38.8516C41.5625 39.2558 41.236 39.5835 40.8333 39.5835C40.4306 39.5835 40.1042 39.2558 40.1042 38.8516ZM30.625 27.8732C30.2223 27.8732 29.8958 28.2009 29.8958 28.6051C29.8958 29.0093 30.2223 29.337 30.625 29.337C31.0277 29.337 31.3542 29.0093 31.3542 28.6051C31.3542 28.2009 31.0277 27.8732 30.625 27.8732ZM16.0417 42.5111C16.0417 42.1068 16.3681 41.7792 16.7708 41.7792C17.1735 41.7792 17.5 42.1068 17.5 42.5111C17.5 42.9153 17.1735 43.2429 16.7708 43.2429C16.3681 43.2429 16.0417 42.9153 16.0417 42.5111Z" fill="white"/>
</svg>
