<svg width="74" height="74" viewBox="0 0 74 74" fill="none" xmlns="http://www.w3.org/2000/svg">
<path d="M27.7528 54.7285C27.4136 54.7285 27.0436 54.636 26.7353 54.4819C24.3611 53.2794 22.3261 51.491 20.8461 49.271C19.6128 47.421 19.6128 45.0469 20.8461 43.1969C22.3261 40.9769 24.3611 39.1885 26.7353 38.0169C27.8761 37.431 29.2636 37.9244 29.8495 39.0652C30.4353 40.206 29.9728 41.5935 28.8011 42.1794C27.1361 43.0119 25.7178 44.276 24.7003 45.8177C24.5153 46.0952 24.5153 46.4652 24.7003 46.7735C25.7178 48.3152 27.1361 49.5794 28.8011 50.4119C29.942 50.9977 30.4045 52.3852 29.8495 53.526C29.4178 54.266 28.5853 54.7285 27.7528 54.7285Z" fill="#FF554C"/>
<path d="M46.895 54.7285C46.0317 54.7285 45.23 54.266 44.8292 53.4643C44.2433 52.3235 44.7058 50.936 45.8775 50.3501C47.5425 49.5176 48.9608 48.2535 49.9783 46.7118C50.1633 46.4343 50.1633 46.0643 49.9783 45.756C48.9608 44.2143 47.5425 42.9501 45.8775 42.1176C44.7367 41.5318 44.2742 40.1443 44.8292 39.0035C45.415 37.8626 46.8025 37.4001 47.9433 37.9551C50.3175 39.1576 52.3525 40.946 53.8325 43.166C55.0658 45.016 55.0658 47.3901 53.8325 49.2401C52.3525 51.4601 50.3175 53.2485 47.9433 54.4201C47.5733 54.636 47.2342 54.7285 46.895 54.7285Z" fill="#FF554C"/>
<path d="M46.2501 70.1454H27.7501C11.0076 70.1454 3.85425 62.9921 3.85425 46.2496V27.7496C3.85425 11.0071 11.0076 3.85376 27.7501 3.85376H46.2501C62.9926 3.85376 70.1459 11.0071 70.1459 27.7496V46.2496C70.1459 62.9921 62.9926 70.1454 46.2501 70.1454ZM27.7501 8.47876C13.5359 8.47876 8.47925 13.5354 8.47925 27.7496V46.2496C8.47925 60.4638 13.5359 65.5204 27.7501 65.5204H46.2501C60.4643 65.5204 65.5209 60.4638 65.5209 46.2496V27.7496C65.5209 13.5354 60.4643 8.47876 46.2501 8.47876H27.7501Z" fill="#FF554C"/>
<path d="M6.8772 27.0096C5.61303 27.0096 4.5647 25.9613 4.5647 24.6971C4.5647 23.4329 5.5822 22.3846 6.8772 22.3846L66.139 22.3538C67.4031 22.3538 68.4515 23.4021 68.4515 24.6663C68.4515 25.9304 67.434 26.9788 66.139 26.9788L6.8772 27.0096Z" fill="#FF554C"/>
</svg>
