<svg width="40" height="40" viewBox="0 0 40 40" fill="none" xmlns="http://www.w3.org/2000/svg">
<path d="M39.6422 16.1612C39.6245 16.0674 39.5422 16 39.4467 16H20.2C20.0895 16 20 16.0895 20 16.2V23.8C20 23.9105 20.0895 24 20.2 24H31.303C29.654 28.657 25.223 32 20 32C13.373 32 8 26.627 8 20C8 13.373 13.373 8 20 8C22.9912 8 25.7185 9.1034 27.8191 10.9147C27.8993 10.9839 28.0195 10.9805 28.0944 10.9056L33.4715 5.52849C33.5516 5.44843 33.5493 5.31788 33.4657 5.24154C29.9108 1.99535 25.1935 0 20 0C8.955 0 0 8.955 0 20C0 31.045 8.955 40 20 40C31.045 40 40 31.045 40 20C40 18.7156 39.8734 17.3845 39.6422 16.1612Z" fill="white"/>
</svg>
