<svg width="40" height="48" viewBox="0 0 40 48" fill="none" xmlns="http://www.w3.org/2000/svg">
<path d="M24.7275 2.00298C22.1416 -0.667655 17.8585 -0.667659 15.2726 2.00296L2.64228 15.0472C1.9169 15.7964 1.42946 16.7435 1.24138 17.7691C-0.292538 26.1341 -0.405765 34.6977 0.906453 43.1002L1.37104 46.0751C1.51778 47.0147 2.32707 47.7074 3.27808 47.7074H12.1036C12.8304 47.7074 13.4197 47.1182 13.4197 46.3913V27.9662H26.5805V46.3913C26.5805 47.1182 27.1697 47.7074 27.8965 47.7074H36.7219C37.6729 47.7074 38.4822 47.0147 38.629 46.0751L39.0935 43.1002C40.4058 34.6977 40.2925 26.1341 38.7586 17.7691C38.5705 16.7435 38.0831 15.7964 37.3577 15.0472L24.7275 2.00298Z" fill="#FF554D"/>
</svg>
