<svg width="40" height="36" viewBox="0 0 40 36" fill="none" xmlns="http://www.w3.org/2000/svg">
<path d="M39.4285 18.7491C39.7812 18.5531 40 18.1813 40 17.7778C40 17.3743 39.7812 17.0025 39.4285 16.8065L34.3567 13.9888C24.3644 8.43753 13.8309 3.92196 2.92047 0.512444L1.44253 0.0505868C1.10515 -0.054843 0.737741 0.00653787 0.452961 0.215908C0.168177 0.425278 0 0.757655 0 1.11112V13.8889C0 14.4798 0.462574 14.9674 1.05271 14.9985L3.29636 15.1166C8.76661 15.4045 14.2035 16.1464 19.5508 17.3347L20.0804 17.4524C20.1982 17.4786 20.2493 17.5268 20.2777 17.565C20.3135 17.6132 20.3414 17.6875 20.3414 17.7778C20.3414 17.868 20.3135 17.9423 20.2777 17.9906C20.2493 18.0288 20.1982 18.077 20.0804 18.1032L19.5509 18.2209C14.2035 19.4092 8.76659 20.1511 3.2963 20.439L1.05271 20.5571C0.462574 20.5882 0 21.0757 0 21.6667V34.4445C0 34.7979 0.168176 35.1303 0.45296 35.3397C0.73774 35.549 1.10515 35.6104 1.44253 35.505L2.9205 35.0431C13.8309 31.6336 24.3643 27.118 34.3566 21.5668L39.4285 18.7491Z" fill="white"/>
</svg>
