<svg width="626" height="979" viewBox="0 0 626 979" fill="none" xmlns="http://www.w3.org/2000/svg">
<mask id="mask0_9_4280" style="mask-type:alpha" maskUnits="userSpaceOnUse" x="0" y="0" width="626" height="979">
<rect width="626" height="978.273" rx="30" fill="#B5CAFC"/>
</mask>
<g mask="url(#mask0_9_4280)">
<rect width="626" height="978.273" rx="30" fill="#B5CAFC"/>
<path d="M145.948 708.305L1507.41 708.305C1567.05 708.305 1615.41 659.952 1615.41 600.305L1615.41 -124.23C1615.41 -183.877 1567.05 -232.23 1507.41 -232.23L-52.9547 -232.23C-124.242 -232.23 -175.973 -164.383 -157.102 -95.6396L41.8011 628.896C54.6765 675.797 97.3123 708.305 145.948 708.305Z" fill="#96AAFE"/>
<path d="M360.936 28.9145C360.936 -9.74541 392.276 -41.0855 430.936 -41.0855H577.864C641.929 -41.0855 693.864 10.8495 693.864 74.9145V189.721C693.864 214.022 674.165 233.721 649.864 233.721H476.936C412.871 233.721 360.936 181.786 360.936 117.721V28.9145Z" fill="#CFD7FB"/>
<path d="M190.57 793.454H-99.4943C-159.141 793.454 -207.494 841.807 -207.494 901.454V976.71C-207.494 1036.36 -159.141 1084.71 -99.4942 1084.71H211.224C282.508 1084.71 334.239 1016.87 315.372 948.127L294.718 872.871C281.846 825.966 239.208 793.454 190.57 793.454Z" fill="#CFD7FB"/>
</g>
</svg>
