<svg width="30" height="30" viewBox="0 0 30 30" fill="none" xmlns="http://www.w3.org/2000/svg">
<path d="M13.8504 0.313277C13.8504 0.128719 13.6923 -0.0169404 13.5086 0.00160164C5.92175 0.767714 0 7.17351 0 14.9624C0 23.2674 6.73255 30 15.0376 30C19.2112 30 22.9881 28.2989 25.7117 25.5544C25.8418 25.4233 25.8275 25.2091 25.6838 25.093L14.2913 15.8857C14.0125 15.6603 13.8504 15.321 13.8504 14.9624V0.313277Z" fill="white"/>
<path d="M27.1776 23.2474C27.3211 23.3634 27.5334 23.3327 27.6343 23.1782C28.915 21.2184 29.751 18.941 29.9984 16.4906C30.0169 16.307 29.8712 16.1496 29.6867 16.1496H19.2906C18.9921 16.1496 18.8594 16.5248 19.0916 16.7124L27.1776 23.2474Z" fill="white"/>
<path d="M29.6867 13.7752C29.8713 13.7752 30.0169 13.6172 29.9984 13.4336C29.2831 6.34934 23.6506 0.716908 16.5664 0.00159345C16.3828 -0.0169476 16.2248 0.128719 16.2248 0.313277V13.3004C16.2248 13.5626 16.4374 13.7752 16.6996 13.7752H29.6867Z" fill="white"/>
</svg>
