<svg width="225" height="227" viewBox="0 0 225 227" fill="none" xmlns="http://www.w3.org/2000/svg">
<path fill-rule="evenodd" clip-rule="evenodd" d="M206.25 15C204.179 15 202.5 16.6789 202.5 18.75C202.5 20.8211 204.179 22.5 206.25 22.5C208.321 22.5 210 20.8211 210 18.75C210 16.6789 208.321 15 206.25 15ZM187.5 18.75C187.5 8.39466 195.895 0 206.25 0C216.605 0 225 8.39466 225 18.75C225 29.1053 216.605 37.5 206.25 37.5C203.832 37.5 201.52 37.0422 199.398 36.2086L159.959 75.648C160.792 77.7705 161.25 80.0818 161.25 82.5C161.25 92.8553 152.855 101.25 142.5 101.25C132.145 101.25 123.75 92.8553 123.75 82.5C123.75 80.0818 124.208 77.7705 125.041 75.648L96.852 47.4586C94.7295 48.2922 92.4182 48.75 90 48.75C87.5818 48.75 85.2705 48.2922 83.148 47.4586L36.2086 94.398C37.0422 96.5205 37.5 98.8318 37.5 101.25C37.5 111.605 29.1053 120 18.75 120C8.39466 120 0 111.605 0 101.25C0 90.8947 8.39466 82.5 18.75 82.5C21.1682 82.5 23.4795 82.9578 25.602 83.7914L72.5414 36.852C71.7078 34.7295 71.25 32.4182 71.25 30C71.25 19.6447 79.6447 11.25 90 11.25C100.355 11.25 108.75 19.6447 108.75 30C108.75 32.4182 108.292 34.7295 107.459 36.852L135.648 65.0414C137.77 64.2078 140.082 63.75 142.5 63.75C144.918 63.75 147.23 64.2078 149.352 65.0414L188.791 25.602C187.958 23.4795 187.5 21.1682 187.5 18.75ZM138.75 82.5C138.75 80.4289 140.429 78.75 142.5 78.75C144.571 78.75 146.25 80.4289 146.25 82.5C146.25 84.5711 144.571 86.25 142.5 86.25C140.429 86.25 138.75 84.5711 138.75 82.5ZM90 26.25C87.9289 26.25 86.25 27.9289 86.25 30C86.25 32.0711 87.9289 33.75 90 33.75C92.0711 33.75 93.75 32.0711 93.75 30C93.75 27.9289 92.0711 26.25 90 26.25ZM15 101.25C15 99.1789 16.6789 97.5 18.75 97.5C20.8211 97.5 22.5 99.1789 22.5 101.25C22.5 103.321 20.8211 105 18.75 105C16.6789 105 15 103.321 15 101.25Z" fill="white"/>
<path d="M19.154 163.516C23.4073 163.516 27.1387 164.347 30.348 166.01C33.596 167.673 36.09 170.051 37.83 173.144C39.6087 176.199 40.498 179.756 40.498 183.816C40.498 187.876 39.6087 191.433 37.83 194.488C36.09 197.504 33.596 199.843 30.348 201.506C27.1387 203.169 23.4073 204 19.154 204H5.002V163.516H19.154ZM18.864 197.098C23.1173 197.098 26.404 195.938 28.724 193.618C31.044 191.298 32.204 188.031 32.204 183.816C32.204 179.601 31.044 176.315 28.724 173.956C26.404 171.559 23.1173 170.36 18.864 170.36H13.122V197.098H18.864ZM44.4882 187.818C44.4882 184.57 45.1262 181.689 46.4022 179.176C47.7169 176.663 49.4762 174.729 51.6802 173.376C53.9229 172.023 56.4169 171.346 59.1622 171.346C61.5596 171.346 63.6476 171.829 65.4262 172.796C67.2436 173.763 68.6936 174.981 69.7762 176.45V171.868H77.9542V204H69.7762V199.302C68.7322 200.81 67.2822 202.067 65.4262 203.072C63.6089 204.039 61.5016 204.522 59.1042 204.522C56.3976 204.522 53.9229 203.826 51.6802 202.434C49.4762 201.042 47.7169 199.089 46.4022 196.576C45.1262 194.024 44.4882 191.105 44.4882 187.818ZM69.7762 187.934C69.7762 185.962 69.3896 184.28 68.6162 182.888C67.8429 181.457 66.7989 180.375 65.4842 179.64C64.1696 178.867 62.7582 178.48 61.2502 178.48C59.7422 178.48 58.3502 178.847 57.0742 179.582C55.7982 180.317 54.7542 181.399 53.9422 182.83C53.1689 184.222 52.7822 185.885 52.7822 187.818C52.7822 189.751 53.1689 191.453 53.9422 192.922C54.7542 194.353 55.7982 195.455 57.0742 196.228C58.3889 197.001 59.7809 197.388 61.2502 197.388C62.7582 197.388 64.1696 197.021 65.4842 196.286C66.7989 195.513 67.8429 194.43 68.6162 193.038C69.3896 191.607 69.7762 189.906 69.7762 187.934ZM98.1808 204.522C95.5515 204.522 93.1928 204.058 91.1048 203.13C89.0168 202.163 87.3541 200.868 86.1168 199.244C84.9181 197.62 84.2608 195.822 84.1448 193.85H92.3228C92.4775 195.087 93.0768 196.112 94.1208 196.924C95.2035 197.736 96.5375 198.142 98.1228 198.142C99.6695 198.142 100.868 197.833 101.719 197.214C102.608 196.595 103.053 195.803 103.053 194.836C103.053 193.792 102.511 193.019 101.429 192.516C100.385 191.975 98.7028 191.395 96.3828 190.776C93.9855 190.196 92.0135 189.597 90.4668 188.978C88.9588 188.359 87.6441 187.412 86.5228 186.136C85.4401 184.86 84.8988 183.139 84.8988 180.974C84.8988 179.195 85.4015 177.571 86.4068 176.102C87.4508 174.633 88.9201 173.473 90.8148 172.622C92.7481 171.771 95.0101 171.346 97.6008 171.346C101.429 171.346 104.483 172.313 106.765 174.246C109.046 176.141 110.303 178.712 110.535 181.96H102.763C102.647 180.684 102.105 179.679 101.139 178.944C100.211 178.171 98.9541 177.784 97.3688 177.784C95.8995 177.784 94.7588 178.055 93.9468 178.596C93.1735 179.137 92.7868 179.891 92.7868 180.858C92.7868 181.941 93.3281 182.772 94.4108 183.352C95.4935 183.893 97.1755 184.454 99.4568 185.034C101.777 185.614 103.691 186.213 105.199 186.832C106.707 187.451 108.002 188.417 109.085 189.732C110.206 191.008 110.786 192.709 110.825 194.836C110.825 196.692 110.303 198.355 109.259 199.824C108.253 201.293 106.784 202.453 104.851 203.304C102.956 204.116 100.733 204.522 98.1808 204.522ZM135.586 171.404C138.022 171.404 140.188 171.945 142.082 173.028C143.977 174.072 145.446 175.638 146.49 177.726C147.573 179.775 148.114 182.25 148.114 185.15V204H139.994V186.252C139.994 183.7 139.356 181.747 138.08 180.394C136.804 179.002 135.064 178.306 132.86 178.306C130.618 178.306 128.839 179.002 127.524 180.394C126.248 181.747 125.61 183.7 125.61 186.252V204H117.49V161.08H125.61V175.87C126.654 174.478 128.046 173.395 129.786 172.622C131.526 171.81 133.46 171.404 135.586 171.404ZM159.432 204.406C157.963 204.406 156.745 203.961 155.778 203.072C154.85 202.144 154.386 201.003 154.386 199.65C154.386 198.297 154.85 197.175 155.778 196.286C156.745 195.358 157.963 194.894 159.432 194.894C160.863 194.894 162.042 195.358 162.97 196.286C163.898 197.175 164.362 198.297 164.362 199.65C164.362 201.003 163.898 202.144 162.97 203.072C162.042 203.961 160.863 204.406 159.432 204.406ZM195.726 196.286H179.602L176.934 204H168.408L182.966 163.458H192.42L206.978 204H198.394L195.726 196.286ZM193.522 189.79L187.664 172.854L181.806 189.79H193.522ZM216.538 168.04C215.107 168.04 213.909 167.595 212.942 166.706C212.014 165.778 211.55 164.637 211.55 163.284C211.55 161.931 212.014 160.809 212.942 159.92C213.909 158.992 215.107 158.528 216.538 158.528C217.969 158.528 219.148 158.992 220.076 159.92C221.043 160.809 221.526 161.931 221.526 163.284C221.526 164.637 221.043 165.778 220.076 166.706C219.148 167.595 217.969 168.04 216.538 168.04ZM220.54 171.868V204H212.42V171.868H220.54Z" fill="white"/>
</svg>
